<?xml version="1.0" standalone="no"?>
<!DOCTYPE svg PUBLIC "-//W3C//DTD SVG 20010904//EN"
 "http://www.w3.org/TR/2001/REC-SVG-20010904/DTD/svg10.dtd">
<svg version="1.0" xmlns="http://www.w3.org/2000/svg"
 width="343.000000pt" height="298.000000pt" viewBox="0 0 343.000000 298.000000"
 preserveAspectRatio="xMidYMid meet">

<g transform="translate(0.000000,298.000000) scale(0.100000,-0.100000)"
fill="#000000" stroke="none">
<path d="M1440 2553 c-135 -63 -364 -171 -510 -239 -145 -69 -267 -130 -271
-136 -10 -15 0 -37 20 -48 13 -6 43 3 112 35 l94 43 5 -503 c4 -357 8 -507 16
-515 7 -7 22 -10 35 -8 l24 3 5 533 5 533 360 169 c198 93 367 169 375 169 8
0 177 -76 375 -169 l360 -169 5 -533 c3 -293 6 -534 8 -535 1 -2 16 -3 32 -3
17 0 31 1 32 3 1 1 5 232 8 514 l5 511 94 -43 c69 -32 99 -41 112 -35 20 11
30 33 20 48 -11 19 -1026 492 -1052 491 -13 0 -134 -52 -269 -116z"/>
<path d="M1855 2060 l7 -60 -301 0 c-238 0 -301 -3 -301 -13 0 -28 51 -324 61
-355 7 -20 24 -42 43 -53 29 -17 52 -19 304 -19 261 0 272 -1 272 -19 0 -11 3
-26 6 -35 6 -14 -24 -16 -290 -16 l-296 0 0 -35 0 -35 336 0 336 0 -6 35 c-3
19 -9 51 -12 70 l-6 35 86 0 86 0 0 35 0 35 -89 0 c-50 0 -92 3 -94 8 -3 4 -8
28 -11 55 l-7 47 100 0 101 0 0 35 0 35 -105 0 c-116 0 -110 -4 -120 73 l-6
47 115 0 116 0 0 35 0 34 -122 3 c-119 3 -123 4 -126 26 -3 18 1 22 22 22 23
0 26 4 26 35 l0 35 -66 0 -66 0 7 -60z"/>
<path d="M1380 1362 c-76 -38 -72 -145 5 -178 69 -29 137 16 137 90 0 40 -26
83 -55 91 -12 4 -29 8 -37 11 -8 2 -31 -4 -50 -14z"/>
<path d="M1903 1373 c-12 -2 -34 -18 -48 -34 -35 -42 -33 -89 4 -131 25 -28
36 -33 72 -32 79 2 126 91 83 153 -14 19 -76 55 -86 50 -2 -1 -13 -4 -25 -6z"/>
<path d="M564 916 c-34 -15 -44 -33 -44 -76 0 -38 26 -67 90 -98 65 -32 78
-50 64 -89 -20 -59 -110 -56 -130 5 -9 30 -12 31 -24 17 -18 -22 1 -62 37 -76
39 -15 106 -2 130 24 53 57 33 111 -54 151 -85 40 -104 75 -63 116 36 36 91
18 101 -32 3 -12 8 -15 18 -9 24 15 5 58 -30 70 -41 14 -57 13 -95 -3z"/>
<path d="M770 921 c0 -5 9 -11 20 -14 19 -5 20 -14 20 -147 0 -133 -1 -142
-20 -147 -52 -14 -9 -23 105 -23 l125 0 0 50 c0 28 -4 50 -10 50 -5 0 -10 -11
-10 -24 0 -41 -25 -56 -91 -56 l-60 0 3 148 c3 144 3 147 26 150 48 7 19 22
-43 22 -36 0 -65 -4 -65 -9z"/>
<path d="M1070 922 c0 -5 9 -12 20 -15 19 -5 20 -14 20 -147 0 -133 -1 -142
-20 -147 -11 -3 -20 -10 -20 -15 0 -7 37 -9 98 -6 115 4 144 18 173 81 24 53
24 121 0 174 -29 63 -58 77 -173 81 -61 3 -98 1 -98 -6z m211 -49 c49 -56 47
-180 -4 -231 -18 -18 -40 -26 -76 -30 l-51 -5 0 153 0 153 52 -5 c41 -4 57
-11 79 -35z"/>
<path d="M1410 921 c0 -5 10 -11 23 -13 22 -3 22 -5 22 -148 0 -143 0 -145
-22 -148 -45 -7 -22 -22 32 -22 54 0 74 13 35 23 -19 5 -20 14 -20 143 0 75 3
135 6 131 4 -3 30 -70 59 -149 29 -78 57 -144 62 -145 5 -2 29 52 53 119 73
205 69 203 70 41 0 -121 -2 -143 -15 -143 -8 0 -15 -4 -15 -10 0 -6 27 -10 60
-10 33 0 60 4 60 10 0 6 -9 10 -19 10 -27 0 -31 18 -31 150 0 132 4 150 31
150 10 0 19 5 19 10 0 6 -22 10 -49 10 -37 0 -51 -4 -56 -17 -4 -10 -25 -67
-46 -128 -22 -60 -44 -114 -48 -118 -5 -5 -30 52 -58 125 l-49 133 -52 3 c-29
2 -52 -1 -52 -7z"/>
<path d="M1995 918 c-8 -22 -103 -272 -110 -290 -4 -10 -13 -18 -21 -18 -8 0
-14 -4 -14 -10 0 -5 25 -10 55 -10 54 0 77 15 33 22 -25 3 -27 23 -9 71 10 25
14 27 74 27 59 0 65 -2 75 -25 19 -41 15 -75 -8 -75 -11 0 -20 -4 -20 -10 0
-6 28 -10 65 -10 62 0 87 12 47 22 -13 4 -35 49 -76 162 -38 101 -63 156 -72
156 -8 0 -17 -6 -19 -12z m40 -111 c14 -37 25 -70 25 -72 0 -3 -25 -5 -55 -5
-30 0 -55 2 -55 3 0 4 34 104 45 136 8 19 11 14 40 -62z"/>
<path d="M2200 921 c0 -5 10 -11 23 -13 22 -3 22 -5 22 -148 0 -143 0 -145
-22 -148 -49 -7 -20 -22 42 -22 63 0 86 12 45 23 -17 4 -20 14 -20 66 0 57 2
61 23 61 17 0 33 -16 65 -69 34 -55 49 -71 73 -76 35 -8 52 2 26 16 -9 6 -35
37 -58 71 l-41 61 30 23 c61 48 47 133 -26 153 -46 13 -182 14 -182 2z m178
-27 c17 -12 22 -25 22 -59 0 -55 -19 -75 -71 -75 l-39 0 0 75 0 75 33 0 c18 0
43 -7 55 -16z"/>
<path d="M2520 921 c0 -5 9 -11 20 -14 19 -5 20 -14 20 -147 0 -133 -1 -142
-20 -147 -41 -11 -18 -23 45 -23 37 0 65 4 65 10 0 6 -9 10 -19 10 -23 0 -31
19 -31 71 0 30 5 42 26 55 28 19 18 28 94 -80 24 -34 46 -53 68 -60 18 -5 35
-7 37 -4 3 3 -12 23 -32 44 -21 22 -55 65 -77 96 l-38 57 48 55 c27 31 57 58
67 62 34 11 16 24 -33 24 -27 0 -50 -4 -50 -10 0 -5 7 -10 15 -10 8 0 15 -4
15 -8 0 -16 -120 -162 -134 -162 -8 0 -8 133 0 154 3 9 15 16 25 16 10 0 19 5
19 10 0 6 -28 10 -65 10 -36 0 -65 -4 -65 -9z"/>
</g>
</svg>
