<?xml version="1.0" standalone="no"?>
<!DOCTYPE svg PUBLIC "-//W3C//DTD SVG 20010904//EN"
 "http://www.w3.org/TR/2001/REC-SVG-20010904/DTD/svg10.dtd">
<svg version="1.0" xmlns="http://www.w3.org/2000/svg"
 width="695.000000pt" height="693.000000pt" viewBox="0 0 695.000000 693.000000"
 preserveAspectRatio="xMidYMid meet">

<g transform="translate(0.000000,693.000000) scale(0.100000,-0.100000)"
fill="#E5371D" stroke="none">
<path d="M2880 5259 c-853 -399 -938 -440 -945 -457 -7 -19 19 -59 45 -67 14
-5 64 14 160 58 l140 65 0 -727 c0 -692 1 -729 18 -744 21 -19 49 -22 72 -7
13 8 16 108 20 771 l5 762 532 248 531 248 529 -248 528 -247 5 -762 c4 -663
7 -764 20 -772 23 -14 45 -12 69 8 l21 17 3 726 2 727 138 -63 c144 -66 167
-69 193 -30 21 33 10 48 -64 84 -234 116 -1434 671 -1449 671 -10 -1 -268
-118 -573 -261z"/>
<path d="M3660 4678 c4 -24 10 -62 14 -85 l6 -43 -435 0 c-408 0 -435 -1 -435
-17 0 -10 20 -132 44 -272 47 -270 53 -286 116 -328 33 -23 35 -23 426 -23
l394 0 0 -22 c0 -13 3 -33 6 -45 l6 -23 -421 0 -421 0 0 -55 0 -55 480 0 480
0 -1 23 c0 12 -6 57 -13 100 l-12 77 123 0 123 0 0 50 0 50 -134 0 -133 0 -7
53 c-4 28 -9 67 -12 85 l-6 32 146 0 146 0 0 50 0 50 -154 0 -154 0 -11 63
c-18 106 -33 97 154 97 l165 0 0 55 0 55 -177 2 -178 3 -3 28 c-3 25 -1 27 32
27 l36 0 0 55 0 55 -99 0 -98 0 7 -42z"/>
<path d="M3000 3639 c-103 -41 -128 -175 -46 -247 82 -71 209 -34 237 70 30
113 -85 219 -191 177z"/>
<path d="M3710 3628 c-134 -70 -87 -271 64 -271 157 0 205 209 63 273 -54 25
-73 25 -127 -2z"/>
<path d="M1825 2740 c-42 -13 -82 -58 -90 -100 -4 -26 0 -47 17 -80 20 -38 34
-50 98 -83 96 -48 124 -78 116 -126 -8 -54 -37 -76 -97 -76 -43 0 -54 4 -75
28 -13 15 -24 39 -24 53 0 26 -9 31 -28 12 -17 -17 -15 -59 3 -85 33 -47 154
-53 221 -12 38 23 54 57 54 113 0 59 -26 89 -120 136 -84 42 -110 69 -110 111
0 41 10 58 41 74 57 30 112 9 127 -47 l8 -32 22 22 c18 18 20 26 11 46 -19 42
-110 66 -174 46z"/>
<path d="M2092 2728 c3 -7 13 -15 24 -17 42 -8 44 -15 44 -216 0 -201 -2 -208
-44 -216 -11 -2 -21 -10 -24 -16 -3 -10 38 -13 182 -13 l186 0 0 75 c0 57 -3
75 -14 75 -8 0 -16 -16 -19 -42 -9 -64 -32 -78 -128 -78 l-79 0 0 204 c0 212
1 219 44 227 11 2 21 10 24 17 3 9 -21 12 -98 12 -77 0 -101 -3 -98 -12z"/>
<path d="M2522 2728 c3 -7 13 -15 24 -17 42 -8 44 -15 44 -216 0 -201 -2 -208
-44 -216 -11 -2 -21 -10 -24 -16 -6 -20 219 -17 286 2 91 27 142 112 142 236
0 113 -53 197 -142 224 -67 19 -292 22 -286 3z m287 -45 c47 -35 71 -97 71
-188 0 -64 -5 -90 -22 -125 -32 -62 -63 -81 -142 -87 l-66 -6 0 218 0 218 66
-6 c43 -3 76 -12 93 -24z"/>
<path d="M3030 2725 c0 -8 8 -15 18 -15 39 0 42 -17 42 -215 0 -198 -3 -215
-42 -215 -10 0 -18 -7 -18 -15 0 -12 15 -15 75 -15 76 0 97 12 51 29 -13 5
-26 20 -29 33 -10 36 -8 368 2 368 5 0 44 -97 86 -215 58 -159 82 -215 93
-213 10 2 43 80 91 215 42 117 80 215 84 219 4 4 6 -82 5 -192 -3 -196 -3
-199 -25 -209 -13 -5 -23 -15 -23 -22 0 -10 23 -13 85 -13 65 0 85 3 85 14 0
7 -13 16 -30 20 l-30 6 0 205 0 206 30 6 c17 3 30 12 30 20 0 11 -15 13 -72
11 l-72 -3 -69 -192 c-38 -106 -72 -193 -76 -193 -3 0 -38 88 -76 195 l-70
195 -72 0 c-58 0 -73 -3 -73 -15z"/>
<path d="M3862 2723 c-4 -10 -43 -112 -87 -228 -69 -181 -83 -210 -103 -213
-12 -2 -22 -10 -22 -18 0 -11 17 -14 81 -14 59 0 80 3 77 12 -3 7 -15 15 -29
18 -31 7 -36 39 -14 96 l17 44 92 0 93 0 17 -45 c22 -57 18 -88 -13 -95 -14
-3 -26 -11 -29 -18 -3 -9 21 -12 92 -12 99 0 117 9 69 32 -25 12 -38 40 -109
233 -69 187 -84 220 -102 223 -14 2 -25 -3 -30 -15z m56 -166 l40 -107 -84 0
-83 0 26 68 c22 59 34 93 49 141 7 21 9 15 52 -102z"/>
<path d="M4160 2726 c0 -10 9 -16 25 -16 14 0 29 -8 35 -19 6 -12 10 -94 10
-196 0 -102 -4 -184 -10 -196 -6 -11 -21 -19 -35 -19 -16 0 -25 -6 -25 -15 0
-12 17 -15 95 -15 74 0 95 3 95 14 0 7 -13 16 -30 20 l-30 6 0 90 0 91 31 -3
c28 -3 39 -14 92 -100 62 -99 85 -118 143 -118 30 0 31 22 2 35 -22 9 -136
169 -137 190 -1 6 12 17 28 27 87 49 84 173 -5 218 -20 10 -70 16 -156 18
-112 4 -128 2 -128 -12z m267 -50 c41 -48 23 -156 -29 -170 -13 -3 -42 -6 -65
-6 l-43 0 0 106 0 106 57 -4 c46 -4 61 -10 80 -32z"/>
<path d="M4612 2728 c3 -7 13 -15 24 -17 42 -8 44 -15 44 -216 0 -201 -2 -208
-44 -216 -11 -2 -21 -10 -24 -16 -3 -10 21 -13 98 -13 77 0 101 3 98 13 -3 6
-13 14 -24 16 -37 6 -44 22 -44 90 0 63 2 69 30 89 16 12 31 22 34 22 3 0 37
-45 77 -101 51 -72 81 -105 105 -115 44 -19 84 -18 84 1 0 8 -6 15 -13 15 -7
0 -27 15 -43 33 -34 35 -164 213 -164 222 0 16 147 166 167 171 13 4 23 12 23
20 0 11 -17 14 -70 14 -56 0 -70 -3 -70 -15 0 -8 7 -15 15 -15 18 0 19 -14 3
-43 -13 -25 -157 -190 -170 -195 -4 -2 -8 46 -8 106 0 113 4 126 44 133 11 2
21 10 24 17 3 9 -21 12 -98 12 -77 0 -101 -3 -98 -12z"/>
<path d="M1973 1818 c15 -12 14 -21 -8 -121 -15 -72 -19 -107 -12 -104 7 2 14
14 15 28 8 51 47 67 58 24 3 -14 16 -32 27 -40 26 -18 49 -20 26 -2 -17 13
-49 69 -49 86 0 6 19 24 42 41 l41 30 -31 0 c-22 0 -30 -4 -26 -14 5 -12 -63
-82 -72 -73 -3 2 2 33 11 68 20 85 19 89 -12 89 -24 0 -25 -2 -10 -12z"/>
<path d="M3430 1815 c10 -11 8 -34 -9 -113 -24 -112 -24 -112 -12 -112 5 0 14
24 21 52 12 56 42 98 72 98 21 0 22 -14 7 -76 -10 -38 -9 -48 3 -60 9 -9 22
-12 33 -8 17 7 16 8 -4 16 -15 5 -21 14 -17 23 3 8 8 37 12 63 5 42 3 50 -12
56 -11 4 -29 -1 -47 -15 l-30 -22 7 39 c4 22 9 47 12 57 4 13 -1 17 -22 17
-22 0 -24 -2 -14 -15z"/>
<path d="M5023 1818 c16 -12 16 -19 -3 -107 -18 -80 -19 -96 -7 -108 8 -8 21
-11 32 -7 17 7 17 8 -2 15 -23 8 -22 19 10 157 l14 62 -30 0 c-27 0 -29 -2
-14 -12z"/>
<path d="M5185 1820 c-4 -6 -3 -16 3 -22 6 -6 12 -6 17 2 4 6 3 16 -3 22 -6 6
-12 6 -17 -2z"/>
<path d="M5320 1820 c13 -8 12 -21 -4 -101 -10 -51 -21 -101 -24 -111 -2 -10
0 -18 6 -18 6 0 14 15 17 33 7 30 20 46 37 47 4 0 15 -15 24 -32 17 -33 31
-48 48 -48 5 0 2 8 -7 18 -9 10 -22 33 -28 50 -13 37 -4 53 46 84 l30 18 -37
0 c-30 0 -35 -3 -31 -18 3 -13 -7 -27 -31 -46 -41 -31 -42 -27 -21 59 19 78
19 75 -12 75 -21 0 -24 -3 -13 -10z"/>
<path d="M3901 1761 c-16 -12 -20 -20 -11 -23 10 -3 10 -15 0 -62 -10 -50 -10
-61 4 -74 12 -12 20 -13 38 -4 23 10 23 11 -6 11 -24 1 -27 4 -23 24 4 12 9
41 13 65 5 31 11 42 25 42 10 0 21 5 24 10 3 6 -3 10 -14 10 -10 0 -21 4 -23
10 -1 5 -14 1 -27 -9z"/>
<path d="M1304 1744 c12 -11 16 -35 16 -85 0 -70 10 -86 31 -48 8 15 8 19 0
15 -8 -5 -11 15 -11 63 0 70 -1 71 -26 71 -23 0 -24 -1 -10 -16z"/>
<path d="M1410 1740 c-7 -14 -7 -20 0 -20 6 0 10 -27 10 -65 0 -50 3 -65 14
-65 8 0 18 5 21 10 3 6 1 10 -4 10 -7 0 -11 29 -11 75 0 75 -10 93 -30 55z"/>
<path d="M1508 1753 c-3 -4 -2 -19 2 -33 l6 -25 7 25 c6 24 -6 51 -15 33z"/>
<path d="M1651 1744 c-30 -21 -53 -77 -45 -109 10 -41 54 -57 87 -32 15 10 12
12 -20 12 -31 0 -39 4 -41 21 -2 17 4 23 29 28 57 11 87 54 57 84 -16 16 -39
15 -67 -4z m57 -16 c4 -22 -32 -58 -59 -58 -16 0 -19 4 -13 23 15 51 64 75 72
35z"/>
<path d="M2190 1745 c10 -12 10 -28 1 -72 -13 -67 -14 -83 -3 -83 8 0 27 72
37 138 5 29 3 32 -21 32 -22 0 -25 -2 -14 -15z"/>
<path d="M2272 1751 c-10 -6 -8 -10 8 -14 15 -4 21 -11 17 -21 -4 -9 -9 -38
-13 -65 -7 -53 4 -69 33 -52 17 10 17 10 1 11 -20 0 -22 16 -7 79 13 56 -5 84
-39 62z"/>
<path d="M2457 1740 c-52 -41 -56 -129 -7 -145 74 -23 150 106 88 149 -30 21
-50 20 -81 -4z m68 -7 c37 -36 -21 -153 -63 -127 -11 7 -18 26 -20 52 -3 34 2
47 22 67 29 29 39 31 61 8z"/>
<path d="M2658 1748 c7 -7 12 -42 12 -85 0 -56 3 -73 14 -73 8 0 17 7 20 16 3
8 2 12 -4 9 -6 -4 -10 22 -10 69 0 72 -1 76 -22 76 -17 0 -19 -3 -10 -12z"/>
<path d="M2762 1734 c-7 -14 -8 -23 -3 -20 5 3 11 -21 13 -54 5 -70 12 -81 36
-55 9 10 12 15 6 12 -15 -9 -24 24 -24 91 0 57 -10 66 -28 26z"/>
<path d="M2856 1751 c-4 -5 -2 -13 4 -16 6 -4 8 -16 5 -28 -5 -17 -4 -19 4 -7
6 8 11 23 11 32 0 20 -16 32 -24 19z"/>
<path d="M3098 1753 c8 -3 12 -30 12 -84 0 -61 3 -79 14 -79 8 0 17 7 20 16 3
8 2 12 -4 9 -6 -4 -10 22 -10 69 0 72 -1 76 -22 75 -13 0 -17 -3 -10 -6z"/>
<path d="M3202 1734 c-7 -14 -8 -23 -3 -20 9 6 21 -48 21 -96 0 -34 11 -35 36
-6 13 16 14 19 2 10 -15 -12 -17 -6 -23 63 -4 41 -11 75 -15 75 -4 0 -12 -12
-18 -26z"/>
<path d="M3300 1748 c0 -7 5 -20 10 -28 8 -12 10 -11 10 7 0 12 -4 25 -10 28
-5 3 -10 0 -10 -7z"/>
<path d="M3694 1749 c-66 -33 -73 -181 -7 -154 16 6 15 8 -6 16 -21 8 -23 14
-18 50 6 43 29 76 62 90 12 5 14 8 5 8 -8 0 -24 -5 -36 -10z"/>
<path d="M4171 1744 c16 -20 49 -120 49 -151 0 -27 -48 -63 -84 -63 -14 0 -26
-4 -26 -10 0 -13 19 -13 56 0 33 12 80 71 119 148 27 55 29 82 6 90 -10 3 -12
-3 -6 -26 9 -44 -37 -138 -50 -100 -2 7 -11 39 -20 71 -13 46 -21 57 -37 57
-18 0 -19 -2 -7 -16z"/>
<path d="M4443 1750 c-27 -11 -53 -59 -53 -99 0 -40 40 -69 77 -55 59 21 90
119 48 150 -21 16 -40 17 -72 4z m55 -12 c26 -26 8 -109 -27 -127 -45 -24 -72
20 -51 83 16 49 52 70 78 44z"/>
<path d="M4639 1746 c9 -11 9 -29 -1 -76 -10 -52 -10 -63 2 -70 20 -13 23 -12
46 5 18 14 18 14 -2 9 -12 -3 -25 -1 -28 4 -6 9 5 75 20 125 4 13 -1 17 -22
17 -22 0 -24 -3 -15 -14z"/>
<path d="M4741 1708 c-21 -91 -11 -131 26 -109 17 10 17 10 -1 11 -20 0 -20 6
0 113 10 58 -12 45 -25 -15z"/>
<path d="M5159 1751 c11 -7 12 -20 1 -76 -14 -77 -6 -96 32 -77 l23 11 -22 0
c-13 1 -23 7 -23 14 1 13 17 90 26 120 4 13 -1 17 -23 17 -20 0 -24 -3 -14 -9z"/>
<path d="M5574 1749 c-28 -14 -54 -61 -54 -98 0 -38 37 -66 75 -57 33 8 33 25
0 18 -26 -5 -55 12 -55 32 0 7 20 17 45 24 33 9 49 19 57 38 11 22 10 28 -7
40 -22 16 -32 17 -61 3z m44 -26 c3 -21 -30 -53 -55 -53 -20 0 -15 34 8 59 24
26 43 23 47 -6z"/>
<path d="M3754 1742 c3 -5 0 -26 -6 -48 -20 -71 -7 -116 29 -95 17 10 17 10
-1 11 -19 0 -20 19 -1 108 6 26 4 32 -9 32 -10 0 -15 -4 -12 -8z"/>
<path d="M1376 1673 c-6 -14 -5 -15 5 -6 7 7 10 15 7 18 -3 3 -9 -2 -12 -12z"/>
<path d="M2835 1654 c-9 -15 -12 -23 -6 -20 11 7 35 46 28 46 -3 0 -12 -12
-22 -26z"/>
<path d="M3166 1663 c-6 -14 -5 -15 5 -6 7 7 10 15 7 18 -3 3 -9 -2 -12 -12z"/>
<path d="M1475 1644 c-9 -15 -12 -23 -6 -20 11 7 35 46 28 46 -3 0 -12 -12
-22 -26z"/>
</g>
</svg>
