<svg width="322.2125px" height="99.2px" xmlns="http://www.w3.org/2000/svg" viewBox="88.89375000000001 25.4 322.2125 99.2" style="background: rgba(0, 0, 0, 0);" preserveAspectRatio="xMidYMid"><defs><linearGradient id="editing-gradient-gradient" x1="0" x2="1" y1="0.5" y2="0.5" gradientUnits="objectBoundingBox"><stop offset="0" stop-color="rgba(100%,44.705882352941174%,36.47058823529412%,0.558)"></stop><stop offset="1" stop-color="#c12a14"></stop></linearGradient></defs><g><g transform="translate(139.55880584567785, 93.50000190734863)"><path d="M20.35-23.10L20.35-23.10L20.35-23.10Q21.10-24.60 21.10-26L21.10-26L21.10-26Q21.10-27.40 20.95-28.18L20.95-28.18L20.95-28.18Q20.80-28.95 20.45-29.55L20.45-29.55L20.45-29.55Q19.70-30.85 18.20-30.85L18.20-30.85L18.20-30.85Q16.35-30.85 14.85-29.50L14.85-29.50L14.85-29.50Q13.25-28.10 13.25-25.90L13.25-25.90L13.25-25.90Q13.25-24.50 14.23-23.43L14.23-23.43L14.23-23.43Q15.20-22.35 16.70-21.35L16.70-21.35L16.70-21.35Q18.20-20.35 19.90-19.35L19.90-19.35L19.90-19.35Q21.60-18.35 23.10-17.15L23.10-17.15L23.10-17.15Q26.55-14.40 26.55-10.70L26.55-10.70L26.55-10.70Q26.55-8.20 25.23-6.08L25.23-6.08L25.23-6.08Q23.90-3.95 21.70-2.40L21.70-2.40L21.70-2.40Q16.90 1 10.55 1L10.55 1L10.55 1Q5.40 1 2.75-0.68L2.75-0.68L2.75-0.68Q0.10-2.35 0.10-4.90L0.10-4.90L0.10-4.90Q0.10-9.45 3.65-10.60L3.65-10.60L3.65-10.60Q4.65-10.95 6.18-10.95L6.18-10.95L6.18-10.95Q7.70-10.95 9.45-10.30L9.45-10.30L9.45-10.30Q8.65-8.25 8.65-6.40L8.65-6.40L8.65-6.40Q8.65-2.40 11.50-2.40L11.50-2.40L11.50-2.40Q13.35-2.40 14.88-3.75L14.88-3.75L14.88-3.75Q16.40-5.10 16.40-6.63L16.40-6.63L16.40-6.63Q16.40-8.15 15.43-9.25L15.43-9.25L15.43-9.25Q14.45-10.35 13-11.23L13-11.23L13-11.23Q11.55-12.10 9.88-12.95L9.88-12.95L9.88-12.95Q8.20-13.80 6.75-15L6.75-15L6.75-15Q3.35-17.75 3.35-22.15L3.35-22.15L3.35-22.15Q3.35-25 4.75-27.23L4.75-27.23L4.75-27.23Q6.15-29.45 8.40-30.95L8.40-30.95L8.40-30.95Q12.90-34 18.43-34L18.43-34L18.43-34Q23.95-34 26.63-32.35L26.63-32.35L26.63-32.35Q29.30-30.70 29.30-27.90L29.30-27.90L29.30-27.90Q29.30-25.45 27.40-23.90L27.40-23.90L27.40-23.90Q25.75-22.60 23.75-22.60L23.75-22.60L23.75-22.60Q21.75-22.60 20.35-23.10ZM51.25-7.70L51.25-7.70L51.25-7.70Q52.20-6.50 52.20-4.17L52.20-4.17L52.20-4.17Q52.20-1.85 50.42-0.43L50.42-0.43L50.42-0.43Q48.65 1 45.55 1L45.55 1L45.55 1Q43.75 1 40.95 0.60L40.95 0.60L40.95 0.60Q35.45-0.25 33.88-0.25L33.88-0.25L33.88-0.25Q32.30-0.25 31.65-0.18L31.65-0.18L31.65-0.18Q31-0.10 29.95 0L29.95 0L36-33L46.95-33L41.95-5.50L41.95-5.50Q42.60-5.40 43.20-5.40L43.20-5.40L44.45-5.40L44.45-5.40Q48.65-5.40 51.25-7.70ZM88-20.75L88-20.75L88-20.75Q88 0.55 64.90 0.55L64.90 0.55L64.90 0.55Q61.20 0.55 55.10-0.35L55.10-0.35L60.70-29.90L60.70-29.90Q61.10-31.90 61.35-33.05L61.35-33.05L61.35-33.05Q68.95-33.60 72.33-33.60L72.33-33.60L72.33-33.60Q75.70-33.60 78.80-32.90L78.80-32.90L78.80-32.90Q81.90-32.20 83.95-30.65L83.95-30.65L83.95-30.65Q88-27.60 88-20.75ZM77.70-22.60L77.70-22.60L77.70-22.60Q77.70-30.05 72.35-30.05L72.35-30.05L71.85-30.05L71.85-30.05Q71.60-30.05 71.35-30L71.35-30L66.20-3.15L66.20-3.15Q66.40-3.05 66.60-3.05L66.60-3.05L67-3.05L67-3.05Q68.85-3.05 70.78-4.20L70.78-4.20L70.78-4.20Q72.70-5.35 74.20-7.70L74.20-7.70L74.20-7.70Q77.70-13.15 77.70-22.60ZM94.80 0L89.05 0L98.10-33L108.55-33L110.85-14.15L120.15-33L128.90-33L129.80-8.30L129.80-8.30Q130-3.40 132.40-1.90L132.40-1.90L132.40-1.90Q131.85-0.90 130.25 0.05L130.25 0.05L130.25 0.05Q128.65 1 126.53 1L126.53 1L126.53 1Q124.40 1 123.15 0.40L123.15 0.40L123.15 0.40Q121.90-0.20 121.20-1.20L121.20-1.20L121.20-1.20Q119.95-3 119.95-6.45L119.95-6.45L119.95-21.90L110.10 0L103.90 0L100.40-22.45L94.80 0ZM136.72-1.50L136.72-1.50L136.72-1.50Q135.55-2.80 135.02-4.85L135.02-4.85L135.02-4.85Q134.50-6.90 134.50-10.25L134.50-10.25L134.50-10.25Q134.50-13.60 135.65-16.65L135.65-16.65L135.65-16.65Q136.80-19.70 138.90-21.90L138.90-21.90L138.90-21.90Q143.20-26.50 150.30-26.50L150.30-26.50L150.30-26.50Q152.85-26.50 154.70-25.65L154.70-25.65L163.25-26.50L159.55-7L159.55-7Q159.40-6.40 159.40-5.30L159.40-5.30L159.40-5.30Q159.40-4.20 160.07-3.50L160.07-3.50L160.07-3.50Q160.75-2.80 161.75-2.70L161.75-2.70L161.75-2.70Q161.25-1 159.42 0L159.42 0L159.42 0Q157.60 1 155.55 1L155.55 1L155.55 1Q153.50 1 152.13 0.23L152.13 0.23L152.13 0.23Q150.75-0.55 150.35-1.85L150.35-1.85L150.35-1.85Q149.55-0.60 147.85 0.20L147.85 0.20L147.85 0.20Q146.15 1 143.88 1L143.88 1L143.88 1Q141.60 1 139.75 0.40L139.75 0.40L139.75 0.40Q137.90-0.20 136.72-1.50ZM147.27-21.80L147.27-21.80L147.27-21.80Q146.70-20.90 146.20-19.38L146.20-19.38L146.20-19.38Q145.70-17.85 144.88-13.78L144.88-13.78L144.88-13.78Q144.05-9.70 144.05-6.80L144.05-6.80L144.05-6.80Q144.05-3.90 144.50-3.05L144.50-3.05L144.50-3.05Q144.95-2.20 145.75-2.20L145.75-2.20L145.75-2.20Q147.35-2.20 148.52-3.73L148.52-3.73L148.52-3.73Q149.70-5.25 150.15-7.95L150.15-7.95L152.80-22.60L152.80-22.60Q151.75-23.50 150.52-23.50L150.52-23.50L150.52-23.50Q149.30-23.50 148.57-23.10L148.57-23.10L148.57-23.10Q147.85-22.70 147.27-21.80ZM181.60-14.05L181.60-14.05L181.60-14.05Q183.40-17.25 183.40-20.50L183.40-20.50L183.40-20.50Q183.40-22.65 181.85-22.65L181.85-22.65L181.85-22.65Q180.65-22.65 179.40-20.60L179.40-20.60L179.40-20.60Q178.10-18.55 177.70-15.90L177.70-15.90L175.10 0L164.75 1L169.85-25.50L178.10-26.50L177.20-21.45L177.20-21.45Q179.65-26.50 185.15-26.50L185.15-26.50L185.15-26.50Q188.05-26.50 189.63-25L189.63-25L189.63-25Q191.20-23.50 191.20-20.43L191.20-20.43L191.20-20.43Q191.20-17.35 189.18-15.40L189.18-15.40L189.18-15.40Q187.15-13.45 183.70-13.45L183.70-13.45L183.70-13.45Q182.20-13.45 181.60-14.05ZM204.90-23.70L204.90-23.70L204.90-23.70Q207.60-26.50 213.30-26.50L213.30-26.50L213.30-26.50Q216.45-26.50 218.18-24.83L218.18-24.83L218.18-24.83Q219.90-23.15 219.90-20.08L219.90-20.08L219.90-20.08Q219.90-17 218.18-14.83L218.18-14.83L218.18-14.83Q216.45-12.65 213.25-11.75L213.25-11.75L213.25-11.75Q213.50-10.75 213.85-9.70L213.85-9.70L214.55-7.70L214.55-7.70Q215.50-5.15 216.25-4.25L216.25-4.25L216.25-4.25Q217-3.35 218-3.05L218-3.05L218-3.05Q217.45-1 215.45 0.10L215.45 0.10L215.45 0.10Q213.85 1 211.65 1L211.65 1L211.65 1Q205.20 1 204.35-8.95L204.35-8.95L204.35-8.95Q204.20-10.35 204.20-11.75L204.20-11.75L204.20-11.75Q206.70-12.45 208.45-14.80L208.45-14.80L208.45-14.80Q210.20-17.15 210.20-19.90L210.20-19.90L210.20-19.90Q210.20-22.65 208.25-22.65L208.25-22.65L208.25-22.65Q206.85-22.65 205.75-21.10L205.75-21.10L205.75-21.10Q204.65-19.55 204.15-16.90L204.15-16.90L200.85 0L190.75 1L197.75-35L207.80-36L206.65-30.05L206.65-30.05Q205.90-25.85 204.90-23.70Z" fill="url(#editing-gradient-gradient)"></path></g></g><style>text {
  font-size: 64px;
  font-family: Arial Black;
  dominant-baseline: central;
  text-anchor: middle;
}</style></svg>